<?xml version="1.0" encoding="UTF-8" standalone="no"?>
<!-- Created with Inkscape (http://www.inkscape.org/) -->

<svg
   xmlns:dc="http://purl.org/dc/elements/1.1/"
   xmlns:cc="http://creativecommons.org/ns#"
   xmlns:rdf="http://www.w3.org/1999/02/22-rdf-syntax-ns#"
   xmlns:svg="http://www.w3.org/2000/svg"
   xmlns="http://www.w3.org/2000/svg"
   xmlns:sodipodi="http://sodipodi.sourceforge.net/DTD/sodipodi-0.dtd"
   xmlns:inkscape="http://www.inkscape.org/namespaces/inkscape"
   width="210mm"
   height="297mm"
   viewBox="0 0 210 297"
   version="1.1"
   id="svg8"
   inkscape:version="0.92.3 (2405546, 2018-03-11)"
   sodipodi:docname="system.svg"
   inkscape:export-filename="C:\Extend\Source\Acropolis\user\graphics\system.png"
   inkscape:export-xdpi="96"
   inkscape:export-ydpi="96">
  <defs
     id="defs2" />
  <sodipodi:namedview
     id="base"
     pagecolor="#ffffff"
     bordercolor="#666666"
     borderopacity="1.0"
     inkscape:pageopacity="0.0"
     inkscape:pageshadow="2"
     inkscape:zoom="0.7"
     inkscape:cx="117.77745"
     inkscape:cy="565.30823"
     inkscape:document-units="mm"
     inkscape:current-layer="layer1"
     showgrid="false"
     inkscape:window-width="1920"
     inkscape:window-height="1017"
     inkscape:window-x="1912"
     inkscape:window-y="-8"
     inkscape:window-maximized="1" />
  <metadata
     id="metadata5">
    <rdf:RDF>
      <cc:Work
         rdf:about="">
        <dc:format>image/svg+xml</dc:format>
        <dc:type
           rdf:resource="http://purl.org/dc/dcmitype/StillImage" />
        <dc:title />
      </cc:Work>
    </rdf:RDF>
  </metadata>
  <g
     inkscape:label="Layer 1"
     inkscape:groupmode="layer"
     id="layer1">
    <g
       id="g982"
       transform="translate(6.0232209,-37.635229)">
      <g
         id="g974">
        <path
           style="opacity:1;fill:#ff5555;fill-opacity:0.98492462;stroke:#666666;stroke-width:1.09278715;stroke-miterlimit:4;stroke-dasharray:none;stroke-opacity:1"
           d="m 103.12405,282.77327 -4.93189,-8.50819 -5.168688,-0.43291 c -10.452207,-0.87543 -17.90999,-2.9088 -26.568481,-7.24392 l -5.238731,-2.62292 -9.081239,4.33028 c -4.994682,2.38166 -9.285254,4.33029 -9.534602,4.33029 -0.249351,0 -1.904853,-1.35679 -3.678897,-3.01509 l -3.225533,-3.01508 3.688086,-9.44566 3.688087,-9.44566 -1.413783,-1.87254 c -3.740034,-4.95364 -7.695124,-12.70099 -9.823022,-19.24161 -1.253237,-3.85215 -1.939426,-6.98196 -3.194678,-14.57141 l -0.294182,-1.77867 -8.924429,-4.30321 -8.924429,-4.30322 0.119972,-2.29615 c 0.169555,-3.24511 0.698145,-6.90595 1.043896,-7.22967 0.16125,-0.15097 4.391134,-1.53787 9.399742,-3.082 5.008608,-1.54412 9.336125,-2.93337 9.616702,-3.08721 0.280578,-0.15385 1.053026,-1.8002 1.71655,-3.65856 3.081087,-8.62936 8.381402,-17.20848 14.662828,-23.73335 l 3.922815,-4.07484 -2.110977,-9.3133 c -1.161035,-5.12232 -2.114674,-9.58331 -2.119195,-9.91331 -0.0098,-0.7185 8.768886,-6.50311 9.869136,-6.50311 0.200695,0 4.243428,2.64703 8.983855,5.88229 l 8.618956,5.88228 1.650002,-0.46263 c 10.028643,-2.81186 11.605105,-3.03946 21.500409,-3.10413 l 8.55827,-0.0559 6.1011,-7.6225 c 3.35562,-4.19237 6.32657,-7.67138 6.60213,-7.73111 0.85088,-0.18447 12.53772,3.78132 13.31531,4.51839 0.0837,0.0793 0.52295,4.92569 0.97619,10.76975 0.65279,8.41711 0.9369,10.68871 1.36691,10.92936 1.23188,0.68939 6.40286,4.67228 8.52843,6.56892 2.85363,2.54629 7.37949,7.51438 9.13503,10.02764 l 1.3328,1.90807 10.60185,0.004 10.60184,0.004 1.47674,3.1873 c 1.30459,2.81577 4.09286,10.29634 4.09286,10.98065 0,0.14048 -3.44502,3.44396 -7.6556,7.34106 -6.86829,6.35693 -7.63471,7.18204 -7.45253,8.02315 0.50505,2.33185 0.7641,10.03681 0.47673,14.17936 -0.17372,2.5043 -0.68522,6.3793 -1.13666,8.61111 l -0.8208,4.05783 6.67126,8.40739 6.67125,8.40739 -1.25827,2.72335 c -0.69204,1.49784 -2.1883,4.3036 -3.325,6.23502 -1.77339,3.01326 -2.17871,3.4851 -2.85569,3.32435 -0.43393,-0.10303 -4.9201,-0.79214 -9.96927,-1.53134 l -9.18031,-1.34402 -3.02248,3.20047 c -5.6889,6.0239 -12.09692,10.81075 -19.26909,14.3942 -2.0833,1.04089 -3.82421,1.92091 -3.86869,1.9556 -0.0445,0.0347 -1.15552,4.7166 -2.46897,10.40424 -1.31345,5.68764 -2.42449,10.37446 -2.46897,10.41516 -0.1645,0.15052 -7.42878,1.57438 -9.21944,1.8071 l -1.85332,0.24085 z m -1.48143,-33.12316 c 17.19398,-1.91724 31.63412,-13.26779 37.39355,-29.39288 3.14181,-8.79635 3.29777,-20.11277 0.39631,-28.75607 -4.23342,-12.61115 -13.75525,-22.78441 -25.82176,-27.58834 -6.72336,-2.67671 -15.34231,-3.74136 -22.531241,-2.78316 -16.544644,2.2052 -30.846322,13.98309 -36.308804,29.90146 -2.952775,8.60476 -2.95588,19.69304 -0.008,28.49192 3.69004,11.01403 11.774035,20.32727 22.212837,25.59049 4.93294,2.48718 10.050577,3.93604 16.573939,4.69226 2.309449,0.26773 4.710189,0.22154 8.093149,-0.15568 z"
           id="path943"
           inkscape:connector-curvature="0" />
        <path
           style="opacity:1;fill:#b3b3b3;fill-opacity:0.98492462;stroke:#666666;stroke-width:4.28571415;stroke-miterlimit:4;stroke-dasharray:none;stroke-opacity:1"
           d="m 344.20602,940.2558 c -36.58637,-6.0807 -66.39218,-20.58501 -91.40083,-44.47814 -31.74106,-30.32524 -48.56239,-66.85989 -50.96243,-110.6866 -2.36224,-43.13626 9.52002,-79.7396 36.88361,-113.62018 20.88553,-25.85968 52.50102,-46.43436 85.47965,-55.62831 27.09346,-7.55325 67.3354,-6.18641 95.55648,3.24563 55.63053,18.59282 98.72117,68.03279 109.53743,125.67756 2.81192,14.98601 3.11564,42.1867 0.651,58.30284 -7.71063,50.41924 -42.64935,97.7941 -89.31633,121.10776 -28.4376,14.2067 -68.00173,20.80401 -96.42858,16.07944 z"
           id="path964"
           inkscape:connector-curvature="0"
           transform="scale(0.26458333)" />
      </g>
      <g
         transform="translate(-10.96131,64.633929)"
         id="g970">
        <path
           style="opacity:1;fill:#ff5555;fill-opacity:1;stroke:#666666;stroke-width:0.72735506;stroke-miterlimit:4;stroke-dasharray:none;stroke-opacity:1"
           d="m 147.40868,123.46139 -3.28264,-5.66302 -3.44026,-0.28814 c -6.95695,-0.58269 -11.92083,-1.93609 -17.68389,-4.82153 l -3.48688,-1.7458 -6.04444,2.88221 c -3.32444,1.58523 -6.18023,2.88223 -6.3462,2.88223 -0.16596,0 -1.26786,-0.90308 -2.44866,-2.00683 l -2.1469,-2.00683 2.45478,-6.287 2.45477,-6.28699 -0.94101,-1.24636 c -2.48935,-3.29712 -5.12184,-8.45373 -6.538156,-12.80714 -0.83415,-2.56398 -1.29088,-4.64717 -2.12637,-9.69868 l -0.1958,-1.18388 -5.940073,-2.8642 -5.940066,-2.8642 0.07985,-1.52831 c 0.112855,-2.15994 0.464682,-4.59658 0.694813,-4.81204 0.107328,-0.10049 2.922723,-1.0236 6.256434,-2.05137 3.333711,-1.02776 6.214092,-1.95244 6.400842,-2.05484 0.18675,-0.1024 0.70089,-1.1982 1.142526,-2.43512 2.05076,-5.74367 5.57863,-11.4539 9.75952,-15.79683 l 2.61101,-2.7122 -1.40506,-6.1989 c -0.77278,-3.40939 -1.40751,-6.378611 -1.41052,-6.598261 -0.007,-0.47823 5.83653,-4.32845 6.56886,-4.32845 0.13358,0 2.82441,1.76186 5.97962,3.91523 l 5.73675,3.915231 1.09824,-0.30793 c 6.67503,-1.87156 7.72431,-2.02305 14.31059,-2.06609 l 5.69634,-0.0372 4.06087,-5.073511 c 2.23349,-2.79042 4.21094,-5.10604 4.39435,-5.1458 0.56635,-0.12278 8.34506,2.51684 8.86262,3.00743 0.0557,0.0528 0.34808,3.27852 0.64975,7.168301 0.43451,5.6024 0.62361,7.11437 0.90981,7.27455 0.81994,0.45885 4.26172,3.10985 5.67649,4.37224 1.89937,1.69481 4.91177,5.00155 6.08025,6.67436 l 0.88711,1.27001 7.05655,0.003 7.05655,0.003 0.98291,2.12146 c 0.86832,1.87416 2.7242,6.8532 2.7242,7.30868 0,0.0935 -2.29301,2.29228 -5.09554,4.88618 -4.57151,4.23115 -5.08164,4.78034 -4.96038,5.34018 0.33616,1.55207 0.50858,6.68046 0.31731,9.43773 -0.11563,1.66685 -0.45608,4.24604 -0.75656,5.73152 l -0.54633,2.70088 4.44037,5.59593 4.44036,5.59592 -0.8375,1.81266 c -0.46062,0.99696 -1.45652,2.86445 -2.21311,4.15001 -1.18036,2.00561 -1.45014,2.31967 -1.90074,2.21267 -0.28882,-0.0686 -3.2748,-0.52724 -6.63551,-1.01925 l -6.11038,-0.89458 -2.01175,2.13022 c -3.78651,4.00949 -8.05166,7.1956 -12.82543,9.58073 -1.38664,0.69281 -2.54538,1.27854 -2.57499,1.30163 -0.0296,0.0231 -0.76911,3.13936 -1.64334,6.92503 -0.87422,3.78568 -1.61373,6.9052 -1.64333,6.9323 -0.10949,0.10018 -4.94457,1.04789 -6.13643,1.20279 l -1.23356,0.16031 z m -0.98603,-22.04665 c 11.44425,-1.27611 21.05555,-8.83099 24.88901,-19.56379 2.09117,-5.85482 2.19497,-13.38699 0.26378,-19.13994 -2.81775,-8.39393 -9.15545,-15.16522 -17.18687,-18.36269 -4.47505,-1.78161 -10.21179,-2.49024 -14.99671,-1.85246 -11.01205,1.46777 -20.5312,9.30709 -24.16701,19.9023 -1.96536,5.72729 -1.96743,13.10761 -0.005,18.96411 2.45608,7.3309 7.83676,13.52976 14.78479,17.03294 3.28335,1.65545 6.68962,2.61981 11.03155,3.12315 1.53716,0.1782 3.13509,0.14745 5.38677,-0.10362 z"
           id="path943-4"
           inkscape:connector-curvature="0" />
        <path
           style="opacity:1;fill:#b3b3b3;fill-opacity:0.98492462;stroke:#666666;stroke-width:4.28571415;stroke-miterlimit:4;stroke-dasharray:none;stroke-opacity:1"
           d="m 523.49174,380.32979 c -43.66456,-8.54407 -77.2519,-39.24265 -87.99095,-80.42302 -3.6806,-14.11378 -4.03932,-39.62691 -0.75356,-53.59528 8.42685,-35.82405 37.10351,-66.88737 73.03022,-79.10826 21.97862,-7.47629 53.71072,-6.24643 76.54496,2.96669 24.28986,9.80044 45.8408,31.00931 57.61274,56.69829 14.94192,32.60655 12.0456,73.64334 -7.33604,103.94173 -23.28244,36.39632 -70.53869,57.45813 -111.10737,49.51985 z"
           id="path966"
           inkscape:connector-curvature="0"
           transform="scale(0.26458333)" />
      </g>
    </g>
  </g>
</svg>
